:SAMPLES-PER-SECOND 30
:FULLY-SPECIFIED
:DEGREES
241
root  -0.669179 37.992 7.68167 -173.161 52.3351 176.321
RightUpLeg  -24.3636 -11.9294 -2.62318
RightLeg  52.6596 -7.72399 -11.307
RightFoot  -1.20957 -1.63514 18.3383
RightToes  2.32829e-010 0 -3.6325e-017
Spine  9.98591 -0.75465 -21.5172
Spine1  13.0631 -7.99741 16.2473
HEad  -1.45202 7.47344 -5.00253
LeftShoulder1  0.84518 -1.26249 -10.46
LeftArm  0.837336 -17.92 -66.3806
LeftForeArm  21.7974 -68.4996 -27.891
LeftHand  -3.97861 -5.62795 40.5468
RightShoulder  0.8661 1.2748 10.9715
RightArm  -3.4721 -27.1775 57.6421
RightForeArm  -21.4727 33.9345 8.65862
RightHand  -2.36742 5.56237 -25.0134
LeftUpLeg  -14.6656 16.125 4.39274
LeftLeg  36.0548 11.595 9.31958
LeftFoot  -12.6589 -0.213833 -24.5367
LeftToes  -5.54824e-011 -8.71001e-011 8.3852e-012
242
root  -0.105557 36.8114 8.08616 -177.332 50.6954 174.762
RightUpLeg  -31.4593 -11.0054 -4.81576
RightLeg  68.5706 -6.75762 -18.9603
RightFoot  2.92175 -1.76645 14.0939
RightToes  2.32829e-010 0 -3.6325e-017
Spine  11.398 -0.272351 -28.6173
Spine1  12.7271 -10.6079 22.7014
HEad  0.26092 10.9389 -5.8171
LeftShoulder1  0.60198 -0.0219509 -9.65622
LeftArm  -2.90618 -24.7442 -62.5908
LeftForeArm  25.4212 -69.6617 -29.4326
LeftHand  -3.88822 -5.8379 39.0212
RightShoulder  1.03727 1.9879 11.8187
RightArm  -2.4801 -31.7836 56.8336
RightForeArm  -26.638 30.2778 7.88843
RightHand  -2.37462 5.47006 -25.2776
LeftUpLeg  -12.3175 10.3473 5.25068
LeftLeg  40.1926 11.6871 10.7752
LeftFoot  -19.0997 -1.75068 -26.9523
LeftToes  -5.54824e-011 -8.71001e-011 8.3852e-012
243
root  0.566432 35.6458 8.62128 179.364 48.9066 173.831
RightUpLeg  -37.896 -9.05048 -8.02071
RightLeg  77.5257 -4.3732 -23.1622
RightFoot  1.71142 -1.24982 10.9354
RightToes  2.32829e-010 0 -3.6325e-017
Spine  12.5581 0.619007 -33.7009
Spine1  12.519 -12.0611 27.3758
HEad  1.01896 16.1704 -6.06576
LeftShoulder1  0.241018 1.97688 -8.22287
LeftArm  -5.94705 -33.1411 -59.5586
LeftForeArm  25.8789 -68.9067 -27.9518
LeftHand  -3.83436 -5.88484 38.3756
RightShoulder  1.18131 2.39446 13.0873
RightArm  -2.39991 -38.1014 56.5225
RightForeArm  -32.2048 28.4568 7.6299
RightHand  -2.17957 4.81474 -24.7077
LeftUpLeg  -11.1557 7.93614 7.39035
LeftLeg  44.6919 8.85692 9.62927
LeftFoot  -24.6811 -3.37682 -29.5556
LeftToes  -5.54824e-011 -8.71001e-011 8.3852e-012
244
root  1.43873 34.6641 9.12834 177.742 46.2724 174.247
RightUpLeg  -42.7608 -8.04251 -11.8524
RightLeg  78.4005 -3.51378 -21.452
RightFoot  -0.951263 -0.921807 10.1491
RightToes  2.32829e-010 0 -3.6325e-017
Spine  13.2577 1.21331 -35.6495
Spine1  12.8913 -12.6853 29.7149
HEad  0.534431 23.0407 -5.98375
LeftShoulder1  0.0188081 3.36659 -7.06772
LeftArm  -8.6717 -41.4904 -57.0285
LeftForeArm  21.6131 -66.1833 -24.2993
LeftHand  -3.76472 -5.68134 38.3709
RightShoulder  1.32398 2.67927 14.6088
RightArm  -2.72141 -43.8322 58.4138
RightForeArm  -37.857 25.9778 7.23882
RightHand  -2.00834 4.14072 -24.3848
LeftUpLeg  -10.8682 7.50666 10.8989
LeftLeg  48.7594 4.1399 5.51764
LeftFoot  -27.7928 -4.46225 -31.3149
LeftToes  -5.54824e-011 -8.71001e-011 8.3852e-012
245
root  2.54376 33.9434 9.52286 177.539 42.2023 175.438
RightUpLeg  -44.7964 -9.38952 -16.5467
RightLeg  72.2523 -4.86931 -17.5621
RightFoot  0.675923 -1.44294 13.4528
RightToes  2.32829e-010 0 -3.6325e-017
Spine  13.4182 1.11236 -34.8707
Spine1  13.4031 -12.8021 29.9247
HEad  -1.04852 29.4753 -6.79583
LeftShoulder1  -0.0341631 3.73702 -6.90875
LeftArm  -9.3777 -48.3299 -55.9104
LeftForeArm  16.1006 -62.7149 -20.8594
LeftHand  -3.65822 -5.53986 37.8138
RightShoulder  1.5272 3.26374 15.8728
RightArm  -2.81566 -48.2727 62.7014
RightForeArm  -44.6974 23.2575 7.2845
RightHand  -1.94918 3.79346 -24.5469
LeftUpLeg  -10.867 5.1503 14.4809
LeftLeg  50.6766 1.30791 2.23209
LeftFoot  -29.5196 -5.05753 -31.9391
LeftToes  -5.54824e-011 -8.71001e-011 8.3852e-012
246
root  3.85683 33.5582 9.87695 178.578 36.8233 176.934
RightUpLeg  -43.4377 -12.067 -21.6823
RightLeg  61.5198 -7.94829 -15.8538
RightFoot  6.93705 -2.77489 17.4548
RightToes  2.32829e-010 0 -3.6325e-017
Spine  13.0262 0.594303 -31.9821
Spine1  13.407 -12.2633 28.6616
HEad  -3.95466 33.2409 -8.6732
LeftShoulder1  -0.0745262 4.00822 -7.03391
LeftArm  -4.27242 -53.0746 -60.1679
LeftForeArm  12.971 -59.8364 -18.5272
LeftHand  -3.52909 -5.65468 36.2236
RightShoulder  1.79393 4.20336 16.6496
RightArm  -2.3309 -51.768 67.226
RightForeArm  -52.8148 22.9945 8.03084
RightHand  -1.83443 3.27503 -24.4727
LeftUpLeg  -11.3601 -0.251906 17.6867
LeftLeg  49.3521 1.27818 2.04672
LeftFoot  -30.4875 -5.52893 -32.9928
LeftToes  -5.54824e-011 -8.71001e-011 8.3852e-012
247
root  5.38264 33.5477 10.2372 -179.417 30.1438 178.46
RightUpLeg  -38.333 -13.6256 -27.1509
RightLeg  48.3093 -11.4994 -13.8907
RightFoot  12.9545 -3.89717 18.4355
RightToes  2.32829e-010 0 -3.6325e-017
Spine  12.2548 0.315007 -27.5211
Spine1  12.508 -10.8263 26.8155
HEad  -7.07327 33.2628 -9.52933
LeftShoulder1  -0.105211 4.18527 -7.53555
LeftArm  8.43701 -54.6588 -71.0302
LeftForeArm  12.6431 -58.3362 -17.3786
LeftHand  -3.33886 -5.78008 34.0359
RightShoulder  2.06945 5.23912 17.0714
RightArm  -0.799191 -53.8641 70.3668
RightForeArm  -59.8309 25.3899 7.50301
RightHand  -1.65389 2.57455 -24.0127
LeftUpLeg  -12.923 -7.31646 21.2552
LeftLeg  45.4481 2.08831 2.70938
LeftFoot  -29.0048 -5.5263 -35.6556
LeftToes  -5.54824e-011 -8.71001e-011 8.3852e-012
248
root  7.16688 33.9003 10.565 -177.486 21.6797 179.044
RightUpLeg  -29.0538 -11.447 -33.493
RightLeg  33.9981 -13.062 -9.55407
RightFoot  16.4698 -4.20978 17.3689
RightToes  2.32829e-010 0 -3.6325e-017
Spine  11.1422 0.791743 -22.4452
Spine1  10.6043 -8.287 24.4374
HEad  -8.47429 28.7211 -7.68468
LeftShoulder1  0.128 2.85455 -10.5585
LeftArm  24.9135 -51.8159 -82.2709
LeftForeArm  12.8761 -57.9587 -17.0795
LeftHand  -3.08981 -5.84342 31.4851
RightShoulder  2.29249 5.91556 17.7951
RightArm  -3.07142 -53.439 70.1095
RightForeArm  -57.0009 26.1227 7.59089
RightHand  -1.6177 2.50468 -23.7093
LeftUpLeg  -15.6533 -14.0286 25.3472
LeftLeg  39.3296 1.81649 2.00306
LeftFoot  -23.3477 -4.07961 -38.7803
LeftToes  -5.54824e-011 -8.71001e-011 8.3852e-012
249
root  9.17233 34.4127 10.8306 -176.017 11.4705 177.744
RightUpLeg  -16.9762 -4.31422 -39.6642
RightLeg  21.724 -14.9921 -6.58503
RightFoot  19.1529 -4.52439 16.9639
RightToes  2.32829e-010 0 -3.6325e-017
Spine  9.38201 2.01965 -17.4562
Spine1  8.32387 -4.68324 20.1456
HEad  -8.54673 19.1883 -4.50235
LeftShoulder1  0.779945 0.079996 -15.9568
LeftArm  38.652 -43.6025 -87.3139
LeftForeArm  12.7578 -58.3758 -17.4008
LeftHand  -2.82855 -6.08903 28.3765
RightShoulder  2.49817 6.28252 19.074
RightArm  -6.62899 -51.249 64.867
RightForeArm  -48.2659 23.1367 7.85864
RightHand  -1.78951 3.29685 -23.838
LeftUpLeg  -19.7125 -18.4105 28.8997
LeftLeg  31.3556 0.88507 0.930331
LeftFoot  -13.664 -0.780858 -39.4134
LeftToes  -5.54824e-011 -8.71001e-011 8.3852e-012
250
root  11.21 34.736 11.0954 -173.943 0.540106 174.958
RightUpLeg  -5.01825 -0.185352 -42.5408
RightLeg  13.471 -17.5772 -6.72184
RightFoot  21.8081 -6.16084 20.9127
RightToes  2.32829e-010 0 -3.6325e-017
Spine  6.78994 3.73362 -11.1425
Spine1  6.66951 -0.0638573 11.5558
HEad  -9.07896 6.53555 -1.73459
LeftShoulder1  1.39801 -1.9563 -19.2173
LeftArm  45.1103 -33.1888 -85.1112
LeftForeArm  13.6915 -60.0786 -18.6814
LeftHand  -2.45662 -6.19672 24.5554
RightShoulder  2.70902 7.04799 19.2686
RightArm  -20.9091 -50.282 55.823
RightForeArm  -30.2669 16.0503 10.6463
RightHand  -2.03818 4.14089 -24.724
LeftUpLeg  -25.5 -18.468 30.5321
LeftLeg  23.582 -0.390862 0.161868
LeftFoot  -2.02412 3.01715 -36.1101
LeftToes  -5.54824e-011 -8.71001e-011 8.3852e-012
251
root  13.0749 34.5968 11.5096 -171.227 -9.00965 172.37
RightUpLeg  4.34317 -9.37507 -42.4822
RightLeg  8.74779 -14.5106 -8.35235
RightFoot  20.6709 -8.90457 31.0877
RightToes  2.32829e-010 0 -3.6325e-017
Spine  4.85426 5.90661 -0.781144
Spine1  5.15745 5.66915 -2.44961
HEad  -10.2104 -4.91857 0.836081
LeftShoulder1  1.4732 -2.28145 -18.906
LeftArm  46.705 -24.7433 -79.5166
LeftForeArm  16.3041 -63.3083 -21.4647
LeftHand  -1.93416 -5.63378 20.4674
RightShoulder  2.57282 7.50247 16.7345
RightArm  -36.6888 -51.521 44.5069
RightForeArm  -13.7256 9.02412 10.1444
RightHand  -2.21978 4.3977 -26.1689
LeftUpLeg  -32.0724 -14.7614 29.7222
LeftLeg  19.8195 -3.01487 -0.905001
LeftFoot  7.17461 5.3832 -32.3088
LeftToes  -5.54824e-011 -8.71001e-011 8.3852e-012
252
root  14.7717 34.0045 12.2714 -170.247 -14.1195 171.195
RightUpLeg  8.05496 -10.9118 -43.0077
RightLeg  11.1338 -18.1038 -7.79937
RightFoot  11.0911 -9.0108 44.1833
RightToes  2.32829e-010 0 -3.6325e-017
Spine  6.48934 7.74042 10.9785
Spine1  2.37332 10.7803 -17.2963
HEad  -10.5336 -10.1619 2.67961
LeftShoulder1  1.2542 -1.39909 -19.1103
LeftArm  42.3637 -18.1547 -69.1874
LeftForeArm  20.4617 -67.453 -26.3849
LeftHand  -1.52384 -4.70508 17.7272
RightShoulder  1.72913 6.04545 10.7496
RightArm  -38.1968 -46.8867 30.5776
RightForeArm  -6.86305 6.97028 6.28659
RightHand  -2.31786 4.61217 -26.7222
LeftUpLeg  -36.3778 -11.382 28.2055
LeftLeg  21.8027 -5.19034 -1.97228
LeftFoot  9.72047 6.23684 -33.0586
LeftToes  -5.54824e-011 -8.71001e-011 8.3852e-012
253
root  16.3527 33.1522 13.4333 -172.301 -13.056 170.791
RightUpLeg  4.12549 -6.75269 -43.6416
RightLeg  20.7318 -16.404 -6.36799
RightFoot  -3.42568 -4.00698 52.3857
RightToes  2.32829e-010 0 -3.6325e-017
Spine  11.2799 7.60037 18.1506
Spine1  -0.352346 12.9216 -25.6979
HEad  -9.05704 -8.05537 1.82188
LeftShoulder1  1.08232 -0.309394 -22.0315
LeftArm  29.864 -8.925 -53.5535
LeftForeArm  27.4377 -72.4114 -36.0955
LeftHand  -1.40742 -3.77832 17.9911
RightShoulder  0.677907 3.49627 1.36099
RightArm  -38.3257 -27.0093 22.4238
RightForeArm  -0.967383 9.42525 5.18379
RightHand  -2.41191 5.22183 -26.2275
LeftUpLeg  -36.0444 -9.43508 27.2713
LeftLeg  27.302 -4.9094 -2.40091
LeftFoot  6.4301 5.89399 -36.7997
LeftToes  -5.54824e-011 -8.71001e-011 8.3852e-012
